<svg width="25" height="24" viewBox="0 0 25 24" fill="none" xmlns="http://www.w3.org/2000/svg">
<g clip-path="url(#clip0_374_19787)">
<path d="M12.9999 7.33331C13.9229 7.33331 14.8252 7.60701 15.5926 8.11979C16.36 8.63257 16.9582 9.3614 17.3114 10.2141C17.6646 11.0668 17.757 12.0052 17.5769 12.9104C17.3969 13.8156 16.9524 14.6472 16.2998 15.2998C15.6471 15.9525 14.8156 16.3969 13.9104 16.577C13.0051 16.757 12.0668 16.6646 11.2141 16.3114C10.3614 15.9582 9.63252 15.3601 9.11974 14.5926C8.60696 13.8252 8.33327 12.923 8.33327 12C8.33327 10.7623 8.82493 9.57532 9.7001 8.70015C10.5753 7.82498 11.7623 7.33331 12.9999 7.33331Z" fill="#F69900"/>
<path d="M12.9999 22.6667C10.8903 22.6667 8.82798 22.0411 7.07386 20.869C5.31973 19.6969 3.95256 18.031 3.14522 16.0819C2.33789 14.1329 2.12665 11.9882 2.53823 9.91902C2.9498 7.84989 3.96571 5.94927 5.45747 4.45751C6.94923 2.96575 8.84985 1.94985 10.919 1.53827C12.9881 1.1267 15.1328 1.33793 17.0819 2.14527C19.031 2.9526 20.6969 4.31978 21.869 6.0739C23.041 7.82803 23.6666 9.89032 23.6666 12C23.6666 14.829 22.5428 17.5421 20.5424 19.5425C18.542 21.5428 15.8289 22.6667 12.9999 22.6667ZM12.9999 2.66665C11.154 2.66665 9.34948 3.21404 7.81462 4.2396C6.27976 5.26516 5.08348 6.72283 4.37706 8.42827C3.67065 10.1337 3.48581 12.0103 3.84594 13.8208C4.20607 15.6313 5.09499 17.2944 6.40028 18.5996C7.70557 19.9049 9.36861 20.7939 11.1791 21.154C12.9896 21.5141 14.8662 21.3293 16.5717 20.6229C18.2771 19.9164 19.7348 18.7202 20.7603 17.1853C21.7859 15.6504 22.3333 13.8459 22.3333 12C22.3333 9.52463 21.3499 7.15066 19.5996 5.40032C17.8493 3.64998 15.4753 2.66665 12.9999 2.66665Z" fill="#F69900"/>
</g>
<defs>
<clipPath id="clip0_374_19787">
<rect width="24" height="24" fill="white" transform="translate(0.714294)"/>
</clipPath>
</defs>
</svg>
