<svg width="25" height="24" viewBox="0 0 25 24" fill="none" xmlns="http://www.w3.org/2000/svg">
<g clip-path="url(#clip0_415_25841)">
<path d="M12.9999 7.33334C13.9229 7.33334 14.8252 7.60704 15.5926 8.11982C16.36 8.6326 16.9582 9.36143 17.3114 10.2142C17.6646 11.0669 17.757 12.0052 17.5769 12.9104C17.3969 13.8157 16.9524 14.6472 16.2998 15.2998C15.6471 15.9525 14.8156 16.3969 13.9104 16.577C13.0051 16.7571 12.0668 16.6647 11.2141 16.3114C10.3614 15.9582 9.63252 15.3601 9.11974 14.5927C8.60696 13.8252 8.33327 12.923 8.33327 12C8.33327 10.7623 8.82493 9.57535 9.7001 8.70018C10.5753 7.82501 11.7623 7.33334 12.9999 7.33334Z" fill="#D60000"/>
<path d="M12.9999 22.6667C10.8903 22.6667 8.82798 22.0411 7.07386 20.869C5.31973 19.697 3.95256 18.0311 3.14522 16.082C2.33789 14.1329 2.12665 11.9882 2.53823 9.91905C2.9498 7.84992 3.96571 5.9493 5.45747 4.45754C6.94923 2.96578 8.84985 1.94988 10.919 1.53831C12.9881 1.12673 15.1328 1.33797 17.0819 2.1453C19.031 2.95263 20.6969 4.31981 21.869 6.07393C23.041 7.82806 23.6666 9.89035 23.6666 12C23.6666 14.829 22.5428 17.5421 20.5424 19.5425C18.542 21.5429 15.8289 22.6667 12.9999 22.6667ZM12.9999 2.66668C11.154 2.66668 9.34948 3.21407 7.81462 4.23963C6.27976 5.26519 5.08348 6.72286 4.37706 8.4283C3.67065 10.1337 3.48581 12.0104 3.84594 13.8209C4.20607 15.6313 5.09499 17.2944 6.40028 18.5997C7.70557 19.905 9.36861 20.7939 11.1791 21.154C12.9896 21.5141 14.8662 21.3293 16.5717 20.6229C18.2771 19.9165 19.7348 18.7202 20.7603 17.1853C21.7859 15.6505 22.3333 13.846 22.3333 12C22.3333 9.52466 21.3499 7.15069 19.5996 5.40035C17.8493 3.65001 15.4753 2.66668 12.9999 2.66668Z" fill="#D60000"/>
</g>
<defs>
<clipPath id="clip0_415_25841">
<rect width="24" height="24" fill="white" transform="translate(0.714294)"/>
</clipPath>
</defs>
</svg>
