<svg width="48" height="32" viewBox="0 0 48 32" fill="none" xmlns="http://www.w3.org/2000/svg">
<rect x="1" y="1" width="46" height="30" rx="4" stroke="#343434" stroke-width="2"/>
<path d="M7.23883 21.6264C9.45383 20.3745 11.9557 19.7184 14.5 19.7222C17.1389 19.7222 19.6163 20.4136 21.7612 21.6264M17.6667 13.3889C17.6667 14.2287 17.333 15.0342 16.7392 15.6281C16.1453 16.2219 15.3399 16.5556 14.5 16.5556C13.6601 16.5556 12.8547 16.2219 12.2608 15.6281C11.667 15.0342 11.3333 14.2287 11.3333 13.3889C11.3333 12.549 11.667 11.7436 12.2608 11.1497C12.8547 10.5559 13.6601 10.2222 14.5 10.2222C15.3399 10.2222 16.1453 10.5559 16.7392 11.1497C17.333 11.7436 17.6667 12.549 17.6667 13.3889ZM24 15.5C24 16.7476 23.7543 17.9829 23.2769 19.1355C22.7994 20.2881 22.0997 21.3354 21.2175 22.2175C20.3354 23.0997 19.2881 23.7994 18.1355 24.2769C16.9829 24.7543 15.7476 25 14.5 25C13.2524 25 12.0171 24.7543 10.8645 24.2769C9.71191 23.7994 8.66464 23.0997 7.78249 22.2175C6.90033 21.3354 6.20056 20.2881 5.72314 19.1355C5.24572 17.9829 5 16.7476 5 15.5C5 12.9804 6.00089 10.5641 7.78249 8.78249C9.56408 7.00089 11.9804 6 14.5 6C17.0196 6 19.4359 7.00089 21.2175 8.78249C22.9991 10.5641 24 12.9804 24 15.5Z" stroke="#343434" stroke-width="2" stroke-linecap="round" stroke-linejoin="round"/>
<line x1="29" y1="11" x2="42" y2="11" stroke="#343434" stroke-width="2" stroke-linecap="round"/>
<line x1="29" y1="16" x2="42" y2="16" stroke="#343434" stroke-width="2" stroke-linecap="round"/>
<line x1="29" y1="21" x2="37" y2="21" stroke="#343434" stroke-width="2" stroke-linecap="round"/>
</svg>
