<svg width="54" height="54" viewBox="0 0 54 54" fill="none" xmlns="http://www.w3.org/2000/svg">
<path d="M27 50.625C20.7343 50.625 14.7251 48.1359 10.2946 43.7054C5.86406 39.2748 3.375 33.2657 3.375 27C3.375 20.7343 5.86406 14.7251 10.2946 10.2946C14.7251 5.86406 20.7343 3.375 27 3.375C33.2657 3.375 39.2748 5.86406 43.7054 10.2946C48.1359 14.7251 50.625 20.7343 50.625 27C50.625 33.2657 48.1359 39.2748 43.7054 43.7054C39.2748 48.1359 33.2657 50.625 27 50.625ZM27 54C34.1608 54 41.0284 51.1554 46.0919 46.0919C51.1554 41.0284 54 34.1608 54 27C54 19.8392 51.1554 12.9716 46.0919 7.90812C41.0284 2.84464 34.1608 0 27 0C19.8392 0 12.9716 2.84464 7.90812 7.90812C2.84464 12.9716 0 19.8392 0 27C0 34.1608 2.84464 41.0284 7.90812 46.0919C12.9716 51.1554 19.8392 54 27 54Z" fill="#626262"/>
<path d="M23.625 38.8125C23.625 38.3649 23.8028 37.9357 24.1193 37.6193C24.4357 37.3028 24.8649 37.125 25.3125 37.125H28.6875C29.1351 37.125 29.5643 37.3028 29.8807 37.6193C30.1972 37.9357 30.375 38.3649 30.375 38.8125C30.375 39.2601 30.1972 39.6893 29.8807 40.0057C29.5643 40.3222 29.1351 40.5 28.6875 40.5H25.3125C24.8649 40.5 24.4357 40.3222 24.1193 40.0057C23.8028 39.6893 23.625 39.2601 23.625 38.8125ZM16.875 28.6875C16.875 28.2399 17.0528 27.8107 17.3693 27.4943C17.6857 27.1778 18.1149 27 18.5625 27H35.4375C35.8851 27 36.3143 27.1778 36.6307 27.4943C36.9472 27.8107 37.125 28.2399 37.125 28.6875C37.125 29.1351 36.9472 29.5643 36.6307 29.8807C36.3143 30.1972 35.8851 30.375 35.4375 30.375H18.5625C18.1149 30.375 17.6857 30.1972 17.3693 29.8807C17.0528 29.5643 16.875 29.1351 16.875 28.6875ZM10.125 18.5625C10.125 18.1149 10.3028 17.6857 10.6193 17.3693C10.9357 17.0528 11.3649 16.875 11.8125 16.875H42.1875C42.6351 16.875 43.0643 17.0528 43.3807 17.3693C43.6972 17.6857 43.875 18.1149 43.875 18.5625C43.875 19.0101 43.6972 19.4393 43.3807 19.7557C43.0643 20.0722 42.6351 20.25 42.1875 20.25H11.8125C11.3649 20.25 10.9357 20.0722 10.6193 19.7557C10.3028 19.4393 10.125 19.0101 10.125 18.5625Z" fill="#626262"/>
</svg>
