<svg width="25" height="24" viewBox="0 0 25 24" fill="none" xmlns="http://www.w3.org/2000/svg">
<path d="M22.8813 0.1275C22.9836 0.195956 23.0675 0.288554 23.1256 0.397119C23.1837 0.505684 23.2141 0.626877 23.2143 0.75V12C23.2143 12.1498 23.1694 12.2961 23.0854 12.4202C23.0015 12.5442 22.8823 12.6403 22.7433 12.696L22.4643 12L22.7433 12.696L22.7388 12.6975L22.7298 12.702L22.6953 12.7155C22.4981 12.7939 22.2996 12.8689 22.0998 12.9405C21.7038 13.083 21.1533 13.275 20.5293 13.4655C19.3053 13.8435 17.7108 14.25 16.4643 14.25C15.1938 14.25 14.1423 13.83 13.2273 13.4625L13.1853 13.4475C12.2343 13.065 11.4243 12.75 10.4643 12.75C9.41429 12.75 8.00729 13.095 6.80879 13.4655C6.27218 13.6327 5.74046 13.8153 5.21429 14.013V23.25C5.21429 23.4489 5.13528 23.6397 4.99462 23.7803C4.85397 23.921 4.66321 24 4.46429 24C4.26538 24 4.07462 23.921 3.93396 23.7803C3.79331 23.6397 3.71429 23.4489 3.71429 23.25V0.75C3.71429 0.551088 3.79331 0.360322 3.93396 0.21967C4.07462 0.0790176 4.26538 0 4.46429 0C4.66321 0 4.85397 0.0790176 4.99462 0.21967C5.13528 0.360322 5.21429 0.551088 5.21429 0.75V1.173C5.55329 1.0545 5.95829 0.918 6.39929 0.783C7.62329 0.408 9.21929 0 10.4643 0C11.7243 0 12.7503 0.4155 13.6458 0.7785L13.7103 0.8055C14.6433 1.182 15.4563 1.5 16.4643 1.5C17.5143 1.5 18.9213 1.155 20.1198 0.7845C20.8028 0.571218 21.4777 0.33306 22.1433 0.0705L22.1718 0.06L22.1778 0.057H22.1793L22.8813 0.1275ZM21.7143 1.8315C21.3843 1.9485 20.9943 2.082 20.5653 2.214C19.3503 2.592 17.7573 2.9985 16.4643 2.9985C15.1353 2.9985 14.0763 2.5695 13.1598 2.1975L13.1478 2.193C12.2073 1.815 11.4228 1.5 10.4643 1.5C9.46079 1.5 8.05529 1.8435 6.84179 2.217C6.29446 2.38587 5.75176 2.56944 5.21429 2.7675V12.417C5.54429 12.3 5.93429 12.1665 6.36329 12.0345C7.57829 11.655 9.17129 11.25 10.4643 11.25C11.7348 11.25 12.7863 11.67 13.7013 12.0375L13.7433 12.0525C14.6943 12.435 15.5043 12.75 16.4643 12.75C17.4663 12.75 18.8733 12.4065 20.0868 12.033C20.6341 11.8641 21.1768 11.6805 21.7143 11.4825V1.833V1.8315Z" fill="#00BFE9"/>
</svg>
